<svg width="512" height="512" viewBox="0 0 512 512" fill="none" xmlns="http://www.w3.org/2000/svg">
<path d="M504.5 110.309H7.5V52.0325C7.5 29.0425 20.931 10.4065 37.5 10.4065H474.5C491.069 10.4065 504.5 29.0425 504.5 52.0325V110.309Z" fill="#43809F"/>
<path d="M474.5 10.4065V110.309H504.5V52.0325C504.5 29.0425 491.069 10.4065 474.5 10.4065Z" fill="#3A7190"/>
<path d="M474.5 501.593H37.5C20.931 501.593 7.5 482.958 7.5 459.967V110.309H504.5V459.967C504.5 482.958 491.069 501.593 474.5 501.593Z" fill="#00DDE7"/>
<path d="M474.5 110.309V501.593C491.069 501.593 504.5 482.958 504.5 459.967V110.309H474.5Z" fill="#5FF9FE"/>
<path d="M55.5068 81.6855C63.7911 81.6855 70.5068 72.3672 70.5068 60.8725C70.5068 49.3778 63.7911 40.0594 55.5068 40.0594C47.2226 40.0594 40.5068 49.3778 40.5068 60.8725C40.5068 72.3672 47.2226 81.6855 55.5068 81.6855Z" fill="#29CEF6"/>
<path d="M113.666 81.6855C121.95 81.6855 128.666 72.3672 128.666 60.8725C128.666 49.3778 121.95 40.0594 113.666 40.0594C105.382 40.0594 98.666 49.3778 98.666 60.8725C98.666 72.3672 105.382 81.6855 113.666 81.6855Z" fill="#F3F3F3"/>
<path d="M171.825 81.6855C180.109 81.6855 186.825 72.3672 186.825 60.8725C186.825 49.3778 180.109 40.0594 171.825 40.0594C163.541 40.0594 156.825 49.3778 156.825 60.8725C156.825 72.3672 163.541 81.6855 171.825 81.6855Z" fill="#F78E36"/>
<path d="M382.5 226.679H335.5C327.216 226.679 320.5 217.36 320.5 205.866C320.5 194.371 327.216 185.053 335.5 185.053H382.5C390.784 185.053 397.5 194.371 397.5 205.866C397.5 217.36 390.784 226.679 382.5 226.679Z" fill="#29CEF6"/>
<path d="M459.5 309.931H335.5C327.216 309.931 320.5 300.612 320.5 289.118C320.5 277.623 327.216 268.305 335.5 268.305H459.5C467.784 268.305 474.5 277.623 474.5 289.118C474.5 300.612 467.784 309.931 459.5 309.931Z" fill="#FFC328"/>
<path d="M422.665 393.183H335.5C327.216 393.183 320.5 383.864 320.5 372.37C320.5 360.875 327.216 351.557 335.5 351.557H422.665C430.949 351.557 437.665 360.875 437.665 372.37C437.665 383.864 430.949 393.183 422.665 393.183Z" fill="#F78E36"/>
<path d="M474.5 0H448.239C444.096 0 440.739 4.65795 440.739 10.4065C440.739 16.1551 444.096 20.813 448.239 20.813H474.5C486.906 20.813 497 34.8188 497 52.0325V99.9024H15V52.0325C15 34.8188 25.093 20.813 37.5 20.813H415.309C419.452 20.813 422.809 16.1551 422.809 10.4065C422.809 4.65795 419.452 0 415.309 0H37.5C16.822 0 0 23.3411 0 52.0325V166.755C0 172.504 3.358 177.162 7.5 177.162C11.642 177.162 15 172.504 15 166.755V120.715H497V389.017C497 394.766 500.357 399.424 504.5 399.424C508.643 399.424 512 394.766 512 389.017V52.0325C512 23.3411 495.178 0 474.5 0V0Z" fill="black"/>
<path d="M504.5 422.496C500.357 422.496 497 427.154 497 432.902V459.968C497 477.181 486.906 491.187 474.5 491.187H37.5C25.093 491.187 15 477.181 15 459.968V211.414C15 205.666 11.642 201.008 7.5 201.008C3.358 201.008 0 205.666 0 211.414V459.968C0 488.659 16.822 512 37.5 512H474.5C495.178 512 512 488.659 512 459.968V432.902C512 427.155 508.643 422.496 504.5 422.496Z" fill="black"/>
<path d="M108.482 226.108C105.553 222.046 100.804 222.046 97.8759 226.108L52.8059 288.644C51.3989 290.597 50.6089 293.243 50.6089 296.004C50.6089 298.765 51.3989 301.41 52.8059 303.363L97.2799 365.073C98.7439 367.104 100.664 368.12 102.583 368.12C104.502 368.12 106.422 367.104 107.886 365.073C110.815 361.007 110.815 354.419 107.886 350.355L68.7149 296.005L108.482 240.827C111.412 236.762 111.412 230.174 108.482 226.108V226.108Z" fill="black"/>
<path d="M209.344 365.071C210.808 367.103 212.728 368.118 214.647 368.118C216.566 368.118 218.486 367.103 219.95 365.071L264.425 303.362C265.831 301.41 266.621 298.764 266.621 296.003C266.621 293.241 265.831 290.597 264.425 288.643L219.354 226.107C216.425 222.044 211.676 222.044 208.748 226.107C205.819 230.172 205.819 236.76 208.748 240.825L248.516 296.003L209.345 350.352C206.415 354.419 206.415 361.007 209.344 365.071V365.071Z" fill="black"/>
<path d="M131.99 403.403C135.015 403.403 137.866 400.845 139.003 396.686L192.297 201.879C193.767 196.505 191.819 190.496 187.947 188.456C184.075 186.415 179.743 189.119 178.274 194.492L124.98 389.302C123.51 394.674 125.458 400.684 129.33 402.723C130.206 403.185 131.105 403.403 131.99 403.403V403.403Z" fill="black"/>
<path d="M33.0059 60.8725C33.0059 78.0862 43.0989 92.092 55.5059 92.092C67.9129 92.092 78.0059 78.0862 78.0059 60.8725C78.0059 43.6587 67.9129 29.653 55.5059 29.653C43.0989 29.653 33.0059 43.6587 33.0059 60.8725V60.8725ZM63.0059 60.8725C63.0059 66.6113 59.6419 71.279 55.5059 71.279C51.3699 71.279 48.0059 66.6113 48.0059 60.8725C48.0059 55.1336 51.3699 50.466 55.5059 50.466C59.6419 50.466 63.0059 55.1336 63.0059 60.8725Z" fill="black"/>
<path d="M91.166 60.8725C91.166 78.0862 101.259 92.092 113.666 92.092C126.073 92.092 136.166 78.0862 136.166 60.8725C136.166 43.6587 126.073 29.653 113.666 29.653C101.259 29.653 91.166 43.6587 91.166 60.8725V60.8725ZM121.166 60.8725C121.166 66.6113 117.802 71.279 113.666 71.279C109.53 71.279 106.166 66.6113 106.166 60.8725C106.166 55.1336 109.53 50.466 113.666 50.466C117.802 50.466 121.166 55.1336 121.166 60.8725Z" fill="black"/>
<path d="M149.325 60.8725C149.325 78.0862 159.418 92.092 171.825 92.092C184.232 92.092 194.325 78.0862 194.325 60.8725C194.325 43.6587 184.232 29.653 171.825 29.653C159.418 29.653 149.325 43.6587 149.325 60.8725V60.8725ZM179.325 60.8725C179.325 66.6113 175.961 71.279 171.825 71.279C167.689 71.279 164.325 66.6113 164.325 60.8725C164.325 55.1336 167.689 50.466 171.825 50.466C175.961 50.466 179.325 55.1336 179.325 60.8725Z" fill="black"/>
<path d="M335.5 237.085H382.5C394.906 237.085 405 223.079 405 205.866C405 188.652 394.906 174.646 382.5 174.646H335.5C323.094 174.646 313 188.652 313 205.866C313 223.079 323.094 237.085 335.5 237.085ZM335.5 195.459H382.5C386.636 195.459 390 200.127 390 205.866C390 211.604 386.636 216.272 382.5 216.272H335.5C331.364 216.272 328 211.604 328 205.866C328 200.127 331.364 195.459 335.5 195.459Z" fill="black"/>
<path d="M335.5 320.337H459.5C471.906 320.337 482 306.331 482 289.118C482 271.904 471.906 257.898 459.5 257.898H335.5C323.094 257.898 313 271.904 313 289.118C313 306.331 323.094 320.337 335.5 320.337ZM335.5 278.711H459.5C463.636 278.711 467 283.379 467 289.118C467 294.857 463.636 299.524 459.5 299.524H335.5C331.364 299.524 328 294.857 328 289.118C328 283.379 331.364 278.711 335.5 278.711Z" fill="black"/>
<path d="M335.5 403.589H422.665C435.071 403.589 445.165 389.583 445.165 372.37C445.165 355.156 435.071 341.15 422.665 341.15H335.5C323.094 341.15 313 355.156 313 372.37C313 389.583 323.094 403.589 335.5 403.589ZM335.5 361.963H422.665C426.801 361.963 430.165 366.631 430.165 372.37C430.165 378.109 426.801 382.776 422.665 382.776H335.5C331.364 382.776 328 378.109 328 372.37C328 366.631 331.364 361.963 335.5 361.963Z" fill="black"/>
</svg>
