<svg width="100" height="123" viewBox="0 0 100 123" fill="none" xmlns="http://www.w3.org/2000/svg">
<g clip-path="url(#clip0)">
<path d="M26.7045 15.3409H14.7727V107.955H26.7045V15.3409Z" fill="black"/>
<path d="M100 15.3409H88.0682V107.386H100V15.3409Z" fill="#1D3557"/>
<path d="M11.9318 15.3409H0V107.955H11.9318V15.3409Z" fill="#1D3557"/>
<path d="M99.717 11.9318V0L0 0V11.9318L99.717 11.9318Z" fill="#1D3557"/>
<path d="M99.717 122.159V110.227H-1.52588e-05V122.159H99.717Z" fill="#1D3557"/>
<path d="M82.3574 65.7301L82.4261 53.7985L14.842 53.4091L14.7733 65.3408L82.3574 65.7301Z" fill="black"/>
<path d="M81.9104 22.1586L72.1261 15.3296L15.3407 96.6895L25.125 103.519L81.9104 22.1586Z" fill="#E63946"/>
<path d="M82.919 107.955L82.9108 96.0227L14.9369 96.0694L14.9451 108.001L82.919 107.955Z" fill="#E63946"/>
<path d="M82.9545 14.7727H71.0227V107.955H82.9545V14.7727Z" fill="black"/>
</g>
<defs>
<clipPath id="clip0">
<rect width="100" height="122.159" fill="white"/>
</clipPath>
</defs>
</svg>
