<svg xmlns="http://www.w3.org/2000/svg" viewBox="0 0 4092.93 3120.05"><defs><style>.cls-1{fill:#272727;}.cls-2{opacity:0.05;}.cls-3{fill:#fff;}</style></defs><g id="Layer_2" data-name="Layer 2"><g id="Layer_1-2" data-name="Layer 1"><rect class="cls-1" width="4092.93" height="3120.05"/><g class="cls-2"><polygon class="cls-3" points="0 1512.33 0 1521.74 455.43 1521.74 775.47 1277.78 1603.56 1277.78 1603.56 1268.36 770.35 1268.36 450.31 1512.33 0 1512.33"/><polygon class="cls-3" points="448.5 1685.69 712.89 1887.23 1386 1887.23 1451.17 1936.91 1628.36 1936.91 1788.14 1815.11 2092.91 1815.11 2092.91 1805.69 1783.02 1805.69 1623.24 1927.5 1456.29 1927.5 1391.12 1877.82 718.01 1877.82 457.24 1679.03 448.5 1685.69"/><polygon class="cls-3" points="0 1920.16 0 1929.58 217.36 1929.58 516.35 2157.49 694.34 2157.49 694.34 2148.08 521.46 2148.08 222.47 1920.16 0 1920.16"/><polygon class="cls-3" points="585.93 1917.4 649.32 1965.73 917.84 1965.73 1119.1 2119.15 1310.92 2119.15 1310.92 2109.73 1124.22 2109.73 922.96 1956.31 654.44 1956.31 594.66 1910.74 585.93 1917.4"/><polygon class="cls-3" points="0 1320.9 0 1330.32 330.96 1330.32 730.84 1025.5 1187.24 1025.5 1324.12 921.15 1315.38 914.49 1182.13 1016.08 725.72 1016.08 325.85 1320.9 0 1320.9"/><path class="cls-3" d="M604.12,1904.65l-218.7-166.72H0v18.84H375.18l218.71,166.72h585.68l176.07,134.22H1737c5.58,17.59,26.39,30.7,51.15,30.7,29,0,52.63-18,52.63-40.12s-23.61-40.12-52.63-40.12c-24.76,0-45.57,13.11-51.15,30.7H1365.88L1189.8,1904.65Zm1143.77,143.64c0-16.93,18.06-30.7,40.27-30.7s40.28,13.77,40.28,30.7-18.06,30.7-40.28,30.7S1747.89,2065.22,1747.89,2048.29Z"/><path class="cls-3" d="M938.62,1461l-278,211.93H0v18.84H1441.9c5.41,15,23.4,26,44.77,26,25.66,0,46.46-15.86,46.46-35.41s-20.8-35.41-46.46-35.41c-21.37,0-39.36,11-44.77,26H695.55l253.31-193.09h71.65c5.58,17.59,26.39,30.7,51.15,30.7,29,0,52.63-18,52.63-40.12s-23.61-40.12-52.63-40.12c-24.76,0-45.57,13.11-51.15,30.7Zm92.77,9.42c0-16.93,18.06-30.7,40.27-30.7s40.28,13.77,40.28,30.7-18.06,30.7-40.28,30.7S1031.39,1487.36,1031.39,1470.43Z"/><path class="cls-3" d="M986,1199.63c5.41-15,23.4-26,44.77-26,25.66,0,46.46,15.86,46.46,35.41s-20.8,35.41-46.46,35.41c-21.37,0-39.36-11-44.77-26H735.71L429.9,1451.59H0v-18.83H419.67l305.81-233.13Z"/><path class="cls-3" d="M1371.57,1351.52l261.16,199.09h369c5.41-15,23.4-26,44.77-26,25.65,0,46.45,15.86,46.45,35.41s-20.8,35.41-46.45,35.41c-21.37,0-39.36-11-44.77-26h-379.2l-261.16-199.08h-566L485.5,1606.53H0V1587.7H475.27l309.81-236.18Z"/><path class="cls-3" d="M670.85,2007.79,850,2144.34c17.73-7.67,40.66-5.76,55.77,5.76,18.14,13.82,18.14,36.25,0,50.08s-47.55,13.82-65.69,0c-15.11-11.51-17.62-29-7.55-42.51l-171.89-131H495.66L278.81,1861.32H0v-18.83H289l216.85,165.3Z"/><path class="cls-3" d="M1932.73,907c-24.76,0-45.57,13.12-51.15,30.71h-320.9L1361.2,1089.79H714.83L371.48,1351.52H0v18.84H381.71l343.35-261.74h646.38l199.47-152.06h310.67c5.58,17.59,26.39,30.7,51.15,30.7,29,0,52.63-18,52.63-40.12S1961.75,907,1932.73,907Zm0,9.42c22.21,0,40.27,13.77,40.27,30.7s-18.06,30.7-40.27,30.7-40.27-13.76-40.27-30.7S1910.52,916.44,1932.73,916.44Z"/><polygon class="cls-3" points="4092.93 1607.72 4092.93 1598.31 3637.49 1598.31 3317.46 1842.27 2489.37 1842.27 2489.37 1851.69 3322.58 1851.69 3642.61 1607.72 4092.93 1607.72"/><polygon class="cls-3" points="3644.42 1434.36 3380.03 1232.82 2706.92 1232.82 2641.75 1183.13 2464.57 1183.13 2304.79 1304.94 2000.01 1304.94 2000.01 1314.36 2309.91 1314.36 2469.69 1192.55 2636.63 1192.55 2701.81 1242.23 3374.92 1242.23 3635.68 1441.02 3644.42 1434.36"/><polygon class="cls-3" points="4092.93 1199.89 4092.93 1190.47 3875.57 1190.47 3576.58 962.55 3398.58 962.55 3398.58 971.97 3571.46 971.97 3870.45 1199.89 4092.93 1199.89"/><polygon class="cls-3" points="3507 1202.65 3443.6 1154.32 3175.09 1154.32 2973.83 1000.9 2782.01 1000.9 2782.01 1010.32 2968.71 1010.32 3169.97 1163.74 3438.48 1163.74 3498.26 1209.31 3507 1202.65"/><polygon class="cls-3" points="4092.93 1799.15 4092.93 1789.73 3761.96 1789.73 3362.09 2094.55 2905.68 2094.55 2768.81 2198.9 2777.54 2205.55 2910.8 2103.97 3367.2 2103.97 3767.08 1799.15 4092.93 1799.15"/><path class="cls-3" d="M3488.8,1215.4l218.71,166.72h385.42v-18.84H3717.74L3499,1196.56H2913.36l-176.08-134.22H2355.91c-5.57-17.59-26.39-30.7-51.15-30.7-29,0-52.63,18-52.63,40.12s23.61,40.12,52.63,40.12c24.76,0,45.58-13.11,51.15-30.7h371.14l176.07,134.22ZM2345,1071.76c0,16.93-18.07,30.7-40.28,30.7s-40.27-13.77-40.27-30.7,18.06-30.7,40.27-30.7S2345,1054.82,2345,1071.76Z"/><path class="cls-3" d="M3154.3,1659l278-211.93h660.61v-18.84H2651c-5.42-15-23.41-26-44.78-26-25.65,0-46.45,15.86-46.45,35.41s20.8,35.41,46.45,35.41c21.37,0,39.36-11,44.78-26h746.34l-253.3,193.09h-71.66c-5.57-17.59-26.39-30.7-51.15-30.7-29,0-52.63,18-52.63,40.12s23.61,40.12,52.63,40.12c24.76,0,45.58-13.11,51.15-30.7Zm-92.76-9.42c0,16.93-18.07,30.7-40.28,30.7s-40.27-13.77-40.27-30.7,18.06-30.7,40.27-30.7S3061.54,1632.69,3061.54,1649.62Z"/><path class="cls-3" d="M3107,1920.42c-5.42,15-23.41,26-44.78,26-25.65,0-46.45-15.86-46.45-35.41s20.8-35.41,46.45-35.41c21.37,0,39.36,11,44.78,26h250.24L3663,1668.46h429.91v18.83H3673.26l-305.81,233.13Z"/><path class="cls-3" d="M2721.36,1768.53,2460.2,1569.44h-369c-5.41,15-23.41,26-44.78,26-25.65,0-46.45-15.85-46.45-35.41s20.8-35.41,46.45-35.41c21.37,0,39.37,11,44.78,26h379.2l261.15,199.08h566l309.81-236.17h485.51v18.83H3617.66l-309.82,236.18Z"/><path class="cls-3" d="M3422.08,1112.26,3243,975.71c-17.72,7.67-40.66,5.76-55.77-5.76-18.14-13.82-18.14-36.25,0-50.08s47.55-13.82,65.69,0c15.11,11.51,17.62,29,7.55,42.51l171.9,131h164.95l216.85,165.31h278.81v18.83h-289L3587,1112.26Z"/><path class="cls-3" d="M2160.2,2213c24.76,0,45.57-13.12,51.14-30.71h320.91l199.47-152.06H3378.1l343.35-261.73h371.48v-18.84H3711.21l-343.35,261.74H2721.49L2522,2163.49H2211.34c-5.57-17.59-26.38-30.7-51.14-30.7-29,0-52.63,18-52.63,40.12S2131.18,2213,2160.2,2213Zm0-9.42c-22.22,0-40.28-13.77-40.28-30.7s18.06-30.7,40.28-30.7,40.27,13.76,40.27,30.7S2182.41,2203.61,2160.2,2203.61Z"/></g></g></g></svg>